<svg xmlns="http://www.w3.org/2000/svg" xmlns:xlink="http://www.w3.org/1999/xlink" version="1.1" x="0px" y="0px" viewBox="0 0 100 125" style="enable-background:new 0 0 100 100;" xml:space="preserve"><g><path d="M50,32.2c-9.8,0-17.8,8-17.8,17.8s8,17.8,17.8,17.8s17.8-8,17.8-17.8S59.8,32.2,50,32.2z"/><path d="M93.6,44.6h-5.1c-2.4-17.5-15.6-30.8-33.2-33.2v-5c0-1.4-0.6-2.8-1.6-3.8S51.3,1,49.9,1c-3,0-5.4,2.4-5.4,5.4v5.1   C27,13.9,13.7,27.1,11.3,44.7H6.4C3.4,44.6,1,47,1,50s2.4,5.4,5.4,5.4h5.1c2.4,17.5,15.6,30.8,33.2,33.2v5.1c0,1.4,0.6,2.8,1.6,3.8   s2.4,1.6,3.8,1.6c3,0,5.4-2.4,5.4-5.4v-5.1C73,86.2,86.3,73,88.7,55.4h5.1c1.4,0,2.8-0.6,3.8-1.6s1.6-2.4,1.6-3.8   C99,47,96.6,44.6,93.6,44.6z M50,78.9C34.1,78.9,21.1,66,21.1,50s13-28.9,28.9-28.9s28.9,13,28.9,28.9S65.9,78.9,50,78.9z"/></g></svg>